<svg width="106" height="100" viewBox="0 0 106 100" fill="none" xmlns="http://www.w3.org/2000/svg">
<path d="M71.0409 58.1923C71.0409 59.4323 70.7654 60.7067 70.1798 61.9467C69.5943 63.1867 68.8365 64.3578 67.8376 65.46C66.1498 67.32 64.2898 68.6634 62.1887 69.5245C60.122 70.3856 57.8832 70.8334 55.472 70.8334C51.9587 70.8334 48.2043 70.0067 44.2431 68.3189C40.282 66.6311 36.3209 64.3578 32.3943 61.4989C28.4331 58.6056 24.6787 55.4023 21.0965 51.8545C17.5487 48.2723 14.3454 44.5178 11.4865 40.5911C8.66204 36.6645 6.3887 32.7378 4.73537 28.8456C3.08204 24.9189 2.25537 21.1645 2.25537 17.5823C2.25537 15.24 2.6687 13.0011 3.49537 10.9345C4.32204 8.83337 5.63093 6.90448 7.45648 5.18226C9.66093 3.01226 12.072 1.94448 14.6209 1.94448C15.5854 1.94448 16.5498 2.15115 17.4109 2.56448C18.3065 2.97781 19.0987 3.59781 19.7187 4.49337L27.7098 15.7567C28.3298 16.6178 28.7776 17.41 29.0876 18.1678C29.3976 18.8911 29.5698 19.6145 29.5698 20.2689C29.5698 21.0956 29.3287 21.9223 28.8465 22.7145C28.3987 23.5067 27.7443 24.3334 26.9176 25.16L24.2998 27.8811C23.9209 28.26 23.7487 28.7078 23.7487 29.2589C23.7487 29.5345 23.7832 29.7756 23.852 30.0511C23.9554 30.3267 24.0587 30.5334 24.1276 30.74C24.7476 31.8767 25.8154 33.3578 27.3309 35.1489C28.8809 36.94 30.5343 38.7656 32.3254 40.5911C34.1854 42.4167 35.9765 44.1045 37.802 45.6545C39.5931 47.17 41.0743 48.2034 42.2454 48.8234C42.4176 48.8923 42.6243 48.9956 42.8654 49.0989C43.1409 49.2023 43.4165 49.2367 43.7265 49.2367C44.312 49.2367 44.7598 49.03 45.1387 48.6511L47.7565 46.0678C48.6176 45.2067 49.4443 44.5523 50.2365 44.1389C51.0287 43.6567 51.8209 43.4156 52.682 43.4156C53.3365 43.4156 54.0254 43.5534 54.7831 43.8634C55.5409 44.1734 56.3332 44.6211 57.1943 45.2067L68.5954 53.3011C69.4909 53.9211 70.1109 54.6445 70.4898 55.5056C70.8343 56.3667 71.0409 57.2278 71.0409 58.1923Z" stroke="#70AA23" stroke-width="3.44444" stroke-miterlimit="10"/>
<path opacity="0.4" d="M47.0332 15.6189L53.9221 22.5078L67.6999 8.73002" stroke="#25390C" stroke-width="3.01389" stroke-linecap="round" stroke-linejoin="round"/>
</svg>
