<svg width="86" height="87" viewBox="0 0 86 87" fill="none" xmlns="http://www.w3.org/2000/svg">
<path opacity="0.4" d="M78.5165 54.4C78.5165 68.203 67.3528 79.3667 53.5498 79.3667L57.2948 73.125" stroke="#25390C" stroke-width="3.12083" stroke-linecap="round" stroke-linejoin="round"/>
<path opacity="0.4" d="M7.18311 33C7.18311 19.197 18.3468 8.03333 32.1498 8.03333L28.4048 14.275" stroke="#25390C" stroke-width="3.12083" stroke-linecap="round" stroke-linejoin="round"/>
<path d="M48.1997 23.1917H83.8664" stroke="#70AA23" stroke-width="3.56667" stroke-miterlimit="10" stroke-linecap="round" stroke-linejoin="round"/>
<path d="M83.8664 15.8962V30.8924C83.8123 36.8909 82.1641 38.377 75.9224 38.377H56.1437C49.7939 38.377 48.1997 36.7828 48.1997 30.5411V15.8692C48.1997 10.1949 49.4967 8.38454 54.4954 8.0603C55.0088 8.0603 55.5492 8.03333 56.1437 8.03333H75.9224C82.2722 8.06035 83.8664 9.62754 83.8664 15.8962Z" stroke="#70AA23" stroke-width="3.56667" stroke-linecap="round" stroke-linejoin="round"/>
<path d="M55.0088 31.676H58.6024" stroke="#70AA23" stroke-width="3.56667" stroke-miterlimit="10" stroke-linecap="round" stroke-linejoin="round"/>
<path d="M64.2769 31.676H73.1125" stroke="#70AA23" stroke-width="3.56667" stroke-miterlimit="10" stroke-linecap="round" stroke-linejoin="round"/>
<path d="M7.18311 64.2083H42.8498" stroke="#70AA23" stroke-width="3.56667" stroke-miterlimit="10" stroke-linecap="round" stroke-linejoin="round"/>
<path d="M42.8498 56.9129V71.9091C42.7957 77.9076 41.1475 79.3936 34.9058 79.3936H15.1271C8.7773 79.3936 7.18311 77.7995 7.18311 71.5578V56.8858C7.18311 51.2116 8.48008 49.4012 13.4788 49.077C13.9922 49.077 14.5326 49.05 15.1271 49.05H34.9058C41.2556 49.077 42.8498 50.6442 42.8498 56.9129Z" stroke="#70AA23" stroke-width="3.56667" stroke-linecap="round" stroke-linejoin="round"/>
<path d="M13.9922 72.6927H17.5858" stroke="#70AA23" stroke-width="3.56667" stroke-miterlimit="10" stroke-linecap="round" stroke-linejoin="round"/>
<path d="M23.2603 72.6927H32.0959" stroke="#70AA23" stroke-width="3.56667" stroke-miterlimit="10" stroke-linecap="round" stroke-linejoin="round"/>
</svg>
