<svg xmlns="http://www.w3.org/2000/svg" width="86" height="87" fill="none" viewBox="0 0 86 87"><path stroke="#25390C" stroke-linecap="round" stroke-linejoin="round" stroke-width="3.121" d="M39.4916 8.03333H32.3583C14.5249 8.03333 7.3916 15.1667 7.3916 33V54.4C7.3916 72.2333 14.5249 79.3667 32.3583 79.3667H53.7583C71.5916 79.3667 78.7249 72.2333 78.7249 54.4V47.2667" opacity=".4"/><path stroke="#70AA23" stroke-linecap="round" stroke-linejoin="round" stroke-miterlimit="10" stroke-width="3.567" d="M57.4675 11.6713L29.3622 39.7767C28.2922 40.8467 27.2222 42.951 27.0082 44.4847L25.4745 55.2203C24.9038 59.108 27.6502 61.8187 31.5378 61.2837L42.2735 59.75C43.7715 59.536 45.8758 58.466 46.9815 57.396L75.0868 29.2907C79.9375 24.44 82.2202 18.8047 75.0868 11.6713C67.9535 4.53802 62.3182 6.82068 57.4675 11.6713Z"/><path stroke="#70AA23" stroke-linecap="round" stroke-linejoin="round" stroke-miterlimit="10" stroke-width="3.121" d="M53.4375 15.7016C55.8272 24.226 62.4968 30.8956 71.0568 33.321" opacity=".4"/></svg>