<svg width="36" height="31" viewBox="0 0 36 31" fill="black" xmlns="http://www.w3.org/2000/svg">
<path d="M35.0435 14.8774V12.1304H31C29.4588 5.4254 24.1147 0 17.5785 0C11.0424 0 5.58474 5.4254 4.04348 12.1304H0V14.8774H11.5663V17.1456H0V19.7252H4.10368C5.76485 26.2318 11.1687 31 17.5773 31C19.756 31 21.8186 30.4494 23.6564 29.4656L22.1354 26.7042C20.7444 27.3987 19.2018 27.7858 17.5773 27.7858C12.7894 27.7858 8.70974 24.4291 7.15336 19.7252H11.565V23.2259H14.4683V19.7252H18.2905L20.2193 23.2259H23.5896V19.7252H35.0435V17.1456H23.587L23.5896 14.8774H35.0435ZM14.4683 17.1456V14.8774H15.6195L16.8478 17.1456H14.4683ZM20.8913 17.1456H20.2174L19.0201 14.8774H20.6875L20.8913 17.1456ZM20.6875 7.51275L20.8913 12.1304H17.5217L14.9643 7.51275H11.5663L11.565 12.1304H7.15336C8.60875 7.22537 12.6594 3.21417 17.5785 3.21417C22.4976 3.21417 26.6299 7.22396 28.0866 12.1304H23.5896L23.5908 7.51275H20.6875Z" fill="#F8F8F8"/>
</svg>
