<svg xmlns="http://www.w3.org/2000/svg" width="37" height="35" fill="none" viewBox="0 0 37 35"><path fill="#8CD42C" d="M24.8069 28.9668L1.38729 12.812C-0.986004 11.175 -0.179242 7.76644 2.78019 6.9649L27.671 0.209238C28.1983 0.0189834 28.7633 -0.042777 29.3193 0.0290875C29.8751 0.100952 30.4059 0.304366 30.8675 0.62245C31.329 0.940533 31.7081 1.36411 31.9731 1.85802C32.2381 2.35194 32.3816 2.90195 32.3915 3.4624L30.9164 26.3716C30.7414 29.0908 27.1802 30.6038 24.8069 28.9668Z"/><path fill="#CFE3B6" d="M17.3788 32.9554L3.58156 5.97328C3.26616 5.35601 3.12738 4.66362 3.1805 3.97248C3.23362 3.28134 3.47659 2.61829 3.88259 2.05647C4.28861 1.49465 4.8419 1.05586 5.48145 0.788509C6.12099 0.521155 6.82195 0.435622 7.50702 0.54135L33.0767 4.48769C33.6653 4.57856 34.2241 4.80786 34.707 5.15674C35.1897 5.50563 35.5828 5.96413 35.8539 6.49454C36.1249 7.02495 36.2663 7.61213 36.2662 8.2078C36.266 8.80346 36.1245 9.39061 35.8534 9.92093L24.0744 32.9567C23.7581 33.5722 23.2782 34.0886 22.6875 34.4491C22.0968 34.8096 21.4182 35.0002 20.7262 35.0001C20.0342 35 19.3556 34.8091 18.765 34.4484C18.1745 34.0876 17.6948 33.571 17.3788 32.9554Z"/><path fill="#CFE3B6" d="M32.3291 4.37111L19.5827 2.40381L3.93311 6.65302L10.1796 18.8732L24.8071 28.9669C25.1298 29.1871 25.4848 29.3558 25.8593 29.4669L31.4153 18.6017L32.3291 4.37111Z"/></svg>