<svg xmlns="http://www.w3.org/2000/svg" width="40" height="40" fill="none" viewBox="0 0 40 40"><path fill="#fff" d="M20.0334 34.2165C16.1501 34.2165 12.2668 33.5998 8.58344 32.3665C7.18344 31.8831 6.11677 30.8998 5.65011 29.6165C5.16677 28.3331 5.33344 26.9165 6.10011 25.6498L8.01677 22.4665C8.41677 21.7998 8.78344 20.4665 8.78344 19.6831V14.8665C8.78344 8.66645 13.8334 3.61646 20.0334 3.61646C26.2334 3.61646 31.2834 8.66645 31.2834 14.8665V19.6831C31.2834 20.4498 31.6501 21.7998 32.0501 22.4831L33.9501 25.6498C34.6668 26.8498 34.8001 28.2998 34.3168 29.6165C33.8334 30.9331 32.7834 31.9331 31.4668 32.3665C27.8001 33.5998 23.9168 34.2165 20.0334 34.2165ZM20.0334 6.11646C15.2168 6.11646 11.2834 10.0331 11.2834 14.8665V19.6831C11.2834 20.8998 10.7834 22.6998 10.1668 23.7498L8.25011 26.9331C7.88344 27.5498 7.78344 28.1998 8.00011 28.7498C8.20011 29.3165 8.70011 29.7498 9.38344 29.9831C16.3501 32.3165 23.7334 32.3165 30.7001 29.9831C31.3001 29.7831 31.7668 29.3331 31.9834 28.7331C32.2001 28.1331 32.1501 27.4831 31.8168 26.9331L29.9001 23.7498C29.2668 22.6665 28.7834 20.8831 28.7834 19.6665V14.8665C28.7834 10.0331 24.8668 6.11646 20.0334 6.11646Z"/><path fill="#fff" d="M23.1327 6.56655C23.016 6.56655 22.8994 6.54989 22.7827 6.51655C22.2994 6.38322 21.8327 6.28322 21.3827 6.21655C19.966 6.03322 18.5994 6.13322 17.316 6.51655C16.8494 6.66655 16.3494 6.51655 16.0327 6.16655C15.716 5.81655 15.616 5.31655 15.7994 4.86655C16.4827 3.11655 18.1494 1.96655 20.0494 1.96655C21.9494 1.96655 23.616 3.09989 24.2994 4.86655C24.466 5.31655 24.3827 5.81655 24.066 6.16655C23.816 6.43322 23.466 6.56655 23.1327 6.56655Z"/><path fill="#fff" d="M20.0322 38.0168C18.3822 38.0168 16.7822 37.3502 15.6156 36.1835C14.4489 35.0168 13.7822 33.4168 13.7822 31.7668H16.2822C16.2822 32.7502 16.6822 33.7168 17.3822 34.4168C18.0822 35.1168 19.0489 35.5168 20.0322 35.5168C22.0989 35.5168 23.7822 33.8335 23.7822 31.7668H26.2822C26.2822 35.2168 23.4822 38.0168 20.0322 38.0168Z"/></svg>