<svg xmlns="http://www.w3.org/2000/svg" width="90" height="90" fill="none" viewBox="0 0 90 90"><path stroke="#25390C" stroke-linecap="round" stroke-linejoin="round" stroke-width="3.594" d="M44.0801 66.5733H66.0227C65.6891 66.8699 65.3555 67.1294 65.0219 67.4259L49.195 79.2867C43.9688 83.1785 35.4439 83.1785 30.1806 79.2867L14.3167 67.4259C10.8326 64.8313 7.97852 59.0862 7.97852 54.7495V27.2842C7.97852 22.7622 11.4256 17.7584 15.651 16.1646L34.1095 9.23344C37.1489 8.08442 42.1897 8.08442 45.2291 9.23344L63.6505 16.1646C67.1717 17.499 70.174 21.2055 71.1006 24.9862H44.043C43.2275 24.9862 42.4862 25.0233 41.782 25.0233C34.9249 25.431 33.1458 27.9143 33.1458 35.735V55.8614C33.1828 64.3864 35.3697 66.5733 44.0801 66.5733Z" opacity=".4"/><path stroke="#70AA23" stroke-linecap="round" stroke-linejoin="round" stroke-miterlimit="10" stroke-width="3.594" d="M33.1826 44.8116H82.1087"/><path stroke="#70AA23" stroke-linecap="round" stroke-linejoin="round" stroke-width="3.594" d="M82.1087 35.698V56.2692C82.0346 64.4977 79.7736 66.5362 71.2115 66.5362H44.0798C35.3695 66.5362 33.1826 64.3494 33.1826 55.7873V35.6609C33.1826 27.8772 34.9618 25.3938 41.8188 24.949C42.5231 24.949 43.2644 24.912 44.0798 24.912H71.2115C79.9218 24.9491 82.1087 27.0989 82.1087 35.698Z"/><path stroke="#70AA23" stroke-linecap="round" stroke-linejoin="round" stroke-miterlimit="10" stroke-width="3.594" d="M42.5234 57.3441H47.4531"/><path stroke="#70AA23" stroke-linecap="round" stroke-linejoin="round" stroke-miterlimit="10" stroke-width="3.594" d="M55.2368 57.3441H67.3572"/></svg>