<svg width="87" height="87" viewBox="0 0 87 87" fill="none" xmlns="http://www.w3.org/2000/svg">
<g opacity="0.4">
<path d="M38.867 60.709V67.9495C38.867 74.0841 33.1603 79.0417 26.134 79.0417C19.1076 79.0417 13.3652 74.0841 13.3652 67.9495V60.709C13.3652 66.8437 19.072 71.195 26.134 71.195C33.1603 71.195 38.867 66.808 38.867 60.709Z" stroke="#25390C" stroke-width="3.12083" stroke-linecap="round" stroke-linejoin="round"/>
<path d="M38.8659 50.9007C38.8659 52.684 38.3665 54.3246 37.5105 55.7513C35.4062 59.211 31.0905 61.3867 26.0971 61.3867C21.1038 61.3867 16.7881 59.1753 14.6837 55.7513C13.8277 54.3246 13.3286 52.684 13.3286 50.9007C13.3286 47.8334 14.7552 45.087 17.0379 43.0897C19.3562 41.0567 22.5304 39.8441 26.0614 39.8441C29.5924 39.8441 32.7669 41.0924 35.0852 43.0897C37.4392 45.0514 38.8659 47.8334 38.8659 50.9007Z" stroke="#25390C" stroke-width="3.12083" stroke-linecap="round" stroke-linejoin="round"/>
<path d="M38.867 50.9007V60.709C38.867 66.8437 33.1603 71.195 26.134 71.195C19.1076 71.195 13.3652 66.808 13.3652 60.709V50.9007C13.3652 44.766 19.072 39.8084 26.134 39.8084C29.665 39.8084 32.8394 41.0566 35.1577 43.054C37.4404 45.0513 38.867 47.8334 38.867 50.9007Z" stroke="#25390C" stroke-width="3.12083" stroke-linecap="round" stroke-linejoin="round"/>
</g>
<path d="M78.9916 39.7012V47.0488C78.9916 49.0104 77.4223 50.6153 75.4249 50.6866H68.4342C64.5822 50.6866 61.0513 47.869 60.7303 44.017C60.5163 41.77 61.3722 39.6656 62.8702 38.2033C64.1899 36.848 66.0089 36.0634 68.0062 36.0634H75.4249C77.4223 36.1347 78.9916 37.7396 78.9916 39.7012Z" stroke="#70AA23" stroke-width="3.56667" stroke-linecap="round" stroke-linejoin="round"/>
<path d="M7.6582 38.025V30.8917C7.6582 21.1903 13.5075 14.4137 22.6025 13.2723C23.5299 13.1297 24.4929 13.0583 25.4915 13.0583H57.5915C58.5189 13.0583 59.4105 13.094 60.2665 13.2366C69.4685 14.3066 75.4249 21.119 75.4249 30.8917V36.0634H68.0061C66.0088 36.0634 64.1898 36.848 62.8701 38.2033C61.3721 39.6656 60.5162 41.77 60.7302 44.017C61.0512 47.869 64.5821 50.6866 68.4341 50.6866H75.4249V55.8583C75.4249 66.5583 68.2915 73.6917 57.5915 73.6917H48.6749" stroke="#70AA23" stroke-width="3.56667" stroke-linecap="round" stroke-linejoin="round"/>
</svg>
